<?xml version="1.0" encoding="utf-8"?>
<!-- Generator: Adobe Illustrator 18.0.0, SVG Export Plug-In . SVG Version: 6.00 Build 0)  -->
<!DOCTYPE svg PUBLIC "-//W3C//DTD SVG 1.1//EN" "http://www.w3.org/Graphics/SVG/1.1/DTD/svg11.dtd">
<svg version="1.1" id="Layer_1" xmlns="http://www.w3.org/2000/svg" xmlns:xlink="http://www.w3.org/1999/xlink" x="0px" y="0px"
	 viewBox="0 0 457.226 377.871" enable-background="new 0 0 457.226 377.871" xml:space="preserve">
<g>
	<g>
		<path fill="#231F20" d="M207.726,43.284c2.241,2.544,10.84,7.111,14.495,5.521c3.41-1.484,4.362-7.157,6.526-7.79
			c0.113-0.033,0.234-0.033,0.347,0c2.164,0.634,3.116,6.307,6.526,7.79c3.655,1.59,12.254-2.977,14.495-5.521
			c1.621-1.841,2.788-7.113,3.325-9.979c0.199-1.065-0.362-2.082-1.242-2.241c-10.25-1.847-22.243,4.844-22.243,4.844l-0.001,0.001
			c-0.649,0.404-1.419,0.404-2.068,0l-0.001-0.001c0,0-11.992-6.69-22.243-4.844c-0.881,0.159-1.441,1.176-1.242,2.241
			C204.938,36.172,206.105,41.444,207.726,43.284z"/>
		<path fill="#231F20" d="M241.009,63.626c-2.172-3.644-5.541-7.776-12.014-7.784c-0.025,0-0.05,0.002-0.075,0.003
			c-0.025-0.002-0.05-0.003-0.075,0.005c-6.701,0-9.88,4.124-12.014,7.764c-0.341,0.582-1.134,0.684-1.613,0.209
			c-4.676-4.634-9.036-9.143-10.097-8.377c5.527,8.405,11.888,23.678,23.762,23.553c0.023,0,0.046-0.001,0.069-0.001
			c11.887-0.182,18.21-15.103,23.766-23.553c-1.062-0.766-5.424,3.746-10.102,8.382C242.141,64.301,241.353,64.203,241.009,63.626z
			 M228.875,60.609v0.005c0.016-0.001,0.031-0.002,0.046-0.003c0.015,0.001,0.03,0.003,0.046,0.003v-0.005
			c3.249,0.054,5.914,2.13,7.038,4.993c-1.848-0.938-4.338-1.517-7.084-1.517c-2.747,0-5.236,0.579-7.084,1.517
			C222.962,62.739,225.626,60.663,228.875,60.609z"/>
		<g>
			<path fill="#231F20" d="M290.572,83.54c-7.843-5.158-17.337-7.67-26.454-9.812c-2.562-0.602-5.321-1.484-6.321-3.45l-1.802-3.54
				l-1.517,3.91c-4.532,11.681-14.871,23.982-25.893,23.982c-10.997,0-21.327-12.279-25.871-23.922l-1.496-3.834l-1.809,3.446
				c-1.018,1.937-3.759,2.81-6.3,3.408c-9.118,2.142-18.612,4.654-26.455,9.812c-14.231,9.359-21.403,26.83-18.845,43.764
				l0.345,2.286l2.073-0.687c9.36-3.102,20.728-2.42,30.946,1.842c5.399,2.253,9.55,5.17,12.345,8.649
				c2.787,3.468,4.111,7.625,3.669,11.172c-9.916-2.071-13.598,1.116-13.598,1.116c4.521-0.541,17.411,2.156,23.096,4.508
				c3.53,1.46,6.949,3.318,10.226,5.1c1.363,0.741,2.767,1.504,4.164,2.231c7.289,3.793,14.849,6.842,22.576,9.144
				c-8.134,3.595-16.389,7.005-24.949,9.002c-7.29,1.701-14.861,2.38-22.558,2.029c-2.452-0.112-4.816-0.456-7.322-0.82
				c-1.111-0.162-2.224-0.323-3.345-0.464c-1.137-0.143-3.402-1.414-4.272-0.254c-1.599,2.133,5.07,10.328,6.35,12.417
				c0.97,1.583,2.896,2.6,4.912,2.6h72.293c2.016,0,3.941-1.017,4.912-2.6c2.491-4.065,4.982-8.13,7.473-12.196
				c3.909-6.381,0.166-6.904-5.69-7.348c-4.136-0.314-8.256-0.828-12.341-1.542c-7.906-1.382-15.682-3.511-23.178-6.38
				c-4.551-1.741-9.021-3.758-13.382-6.045c-1.376-0.721-2.772-1.486-4.127-2.228c-3.366-1.844-6.877-3.767-10.588-5.314
				c-2.587-1.078-5.098-1.882-7.521-2.415c0.589-4.36-0.93-9.295-4.295-13.528c-0.319-0.402-0.518-0.737-0.659-1.039l-1.389-1.64
				c2.681-1.418,8.358-1.532,10.072-1.528c3.625,0.008,6.532,1.76,9.322,3.889c6.614,5.047,13.049,7.153,21.208,8.265
				c1.324,0.18,2.691,0.366,4.026,0.582c5.069,0.816,9.568,1.219,13.717,1.219c2.956,0,5.741-0.205,8.433-0.613
				c0.626-0.095,1.255-0.193,1.885-0.29c6.453-1,13.156-2.04,19.153-0.652c0,0-0.776-4.807-19.362-2.375
				c2.943-3.399,8.229-10.918,13.625-12.651c10.54-3.387,21.586-4.944,30.946-1.842l2.073,0.687l0.345-2.286
				C311.974,110.37,304.802,92.899,290.572,83.54z"/>
		</g>
		<path fill="#DC5A56" d="M256.626,72.32c2.342,3.186,8.071,3.412,11.539,4.54c14.263,4.64,27.781,8.771,33.865,23.334
			c2.743,6.566,6.216,26.539,4.289,25.881c-11.027-3.768-27.494-2.124-36.794,4.898c-2.356-9.543,0.136-22.514,5.575-30.702
			c-4.858,4.062-9.876,5.256-11.309,38.467c-0.717,1.752-1.371,4.802-5.256,5.495c-7.368,1.315-20.613-1.062-26.998-1.672
			c-10.831-1.035-14.996-7.418-18.955-9.398c-7.008-3.504-19.751-2.787-19.751-2.787s1.911-21.503-8.999-26.919
			c4.74,7.098,7.327,17.999,3.663,26.6c-9.732-7.577-25.4-8.703-36.794-3.982c-3.81-9.207,5.183-28.564,6.69-30.741
			c8.035-11.607,20.78-15.579,33.927-18.318c3.823-0.796,9.876-3.186,9.876-3.186s9.079,22.937,27.237,23.414
			c7.567,0.199,11.539-2.29,17.043-7.486S254.952,78.291,256.626,72.32z"/>
		<path opacity="0.09" fill="#414042" d="M243.881,140.87c-10.644-1.111-22.805-8.57-33.837-8.731
			c0.886,0.289,1.74,0.626,2.538,1.025c3.958,1.979,8.123,8.362,18.954,9.398c6.386,0.61,19.63,2.988,26.998,1.672
			c3.885-0.694,4.54-3.743,5.256-5.495c0.152-3.529,0.346-6.686,0.576-9.529C260.675,136.745,254.077,141.934,243.881,140.87z"/>
		<path opacity="0.09" fill="#414042" d="M274.847,107.693c0.078-2.629,0.301-5.28,0.686-7.904
			c-0.359,0.304-0.701,0.624-1.023,0.964c0.197-0.157,0.394-0.317,0.591-0.481c-5.439,8.187-7.93,21.159-5.575,30.702
			c2.083-1.573,4.537-2.86,7.197-3.893C275.255,120.632,274.66,113.981,274.847,107.693z"/>
		<path opacity="0.09" fill="#414042" d="M185.893,108.315c0.486,6.59-0.51,12.983-2.53,19.091c1.463,0.775,2.852,1.654,4.133,2.651
			c3.134-7.359,1.687-16.393-1.763-23.297C185.793,107.277,185.855,107.793,185.893,108.315z"/>
		<path fill="#DC5A56" d="M184.947,185.328l5.973,9.318l76.455-1.195l6.929-14.813c0,0-19.432-2.23-27.874-4.778
			C246.43,173.86,214.096,192.018,184.947,185.328z"/>
		<path opacity="0.09" fill="#414042" d="M232.975,182.864c7.651-3.12,14.058-6.749,22.521-5.307
			c6.437,1.097,12.454,2.94,17.941,0.978c-3.86-0.465-19.63-2.449-27.007-4.676c0,0-24.721,13.882-50.418,12.897
			C208.198,189.387,221.532,187.531,232.975,182.864z"/>
	</g>
	<g>
		<g>
			<path fill="#DC5A56" d="M86.787,251.253c1.842,2.484,2.763,5.54,2.763,9.168c0,3.237-0.851,6.07-2.554,8.498
				c-1.703,2.428-4.131,4.311-7.284,5.651c-3.154,1.339-6.852,2.009-11.093,2.009h-22.27c-2.289,0-4.047-0.614-5.275-1.842
				c-1.228-1.227-1.842-2.985-1.842-5.275v-44.791c0-2.288,0.614-4.046,1.842-5.274c1.227-1.227,2.985-1.842,5.275-1.842h21.432
				c6.195,0,11.12,1.381,14.777,4.144c3.655,2.763,5.484,6.489,5.484,11.177c0,3.014-0.81,5.68-2.428,7.995
				c-1.619,2.317-3.88,4.006-6.781,5.066C82.293,246.998,84.945,248.77,86.787,251.253z M54.219,240.746h10.967
				c2.902,0,5.023-0.446,6.363-1.34c1.34-0.892,2.009-2.315,2.009-4.27c0-2.064-0.67-3.571-2.009-4.521
				c-1.34-0.948-3.461-1.423-6.363-1.423H54.219V240.746z M73.266,263.477c1.311-0.976,1.967-2.581,1.967-4.814
				c0-2.232-0.657-3.837-1.967-4.814c-1.312-0.976-3.503-1.465-6.572-1.465H54.219v12.558h12.475
				C69.762,264.942,71.954,264.454,73.266,263.477z"/>
			<path fill="#DC5A56" d="M105.581,273.607c-4.437-2.483-7.857-5.999-10.256-10.549c-2.4-4.548-3.6-9.892-3.6-16.032
				c0-6.139,1.2-11.483,3.6-16.033c2.399-4.548,5.819-8.05,10.256-10.507c4.437-2.455,9.67-3.683,15.698-3.683
				s11.261,1.228,15.698,3.683c4.437,2.457,7.841,5.959,10.214,10.507c2.372,4.55,3.558,9.894,3.558,16.033
				c0,6.14-1.201,11.484-3.6,16.032c-2.4,4.55-5.819,8.066-10.256,10.549c-4.437,2.484-9.642,3.725-15.614,3.725
				C115.251,277.332,110.019,276.091,105.581,273.607z M131.744,260.798c2.512-3.153,3.767-7.744,3.767-13.772
				c0-6.028-1.27-10.604-3.809-13.731c-2.541-3.125-6.015-4.688-10.423-4.688c-4.466,0-7.954,1.549-10.465,4.647
				c-2.512,3.097-3.768,7.69-3.768,13.772c0,6.084,1.256,10.689,3.768,13.814c2.511,3.126,5.999,4.689,10.465,4.689
				C125.744,265.528,129.232,263.951,131.744,260.798z"/>
			<path fill="#DC5A56" d="M162.008,270.802c-4.437-4.354-6.656-10.717-6.656-19.089v-27.042c0-2.288,0.683-4.116,2.051-5.483
				c1.367-1.367,3.194-2.051,5.484-2.051c2.288,0,4.115,0.684,5.484,2.051c1.367,1.368,2.051,3.195,2.051,5.483V252.3
				c0,4.242,0.949,7.507,2.847,9.795c1.897,2.289,4.632,3.433,8.205,3.433c3.571,0,6.306-1.143,8.205-3.433
				c1.897-2.288,2.846-5.553,2.846-9.795v-27.628c0-2.288,0.683-4.116,2.051-5.483c1.367-1.367,3.194-2.051,5.484-2.051
				c2.288,0,4.13,0.684,5.526,2.051c1.394,1.368,2.093,3.195,2.093,5.483v27.042c0,8.317-2.247,14.666-6.74,19.047
				c-4.494,4.382-10.982,6.572-19.465,6.572C172.934,277.332,166.446,275.155,162.008,270.802z"/>
			<path fill="#DC5A56" d="M264.482,219.23c1.367,1.395,2.051,3.21,2.051,5.441v44.791c0,2.289-0.67,4.131-2.009,5.526
				c-1.34,1.396-3.07,2.093-5.191,2.093c-2.511,0-4.41-0.837-5.693-2.511l-25.451-31.731v26.624c0,2.289-0.642,4.131-1.926,5.526
				c-1.285,1.396-3.014,2.093-5.191,2.093c-2.122,0-3.851-0.697-5.191-2.093c-1.34-1.394-2.009-3.236-2.009-5.526v-44.791
				c0-2.232,0.67-4.046,2.009-5.441c1.34-1.394,3.069-2.093,5.191-2.093c2.399,0,4.27,0.837,5.609,2.512l25.451,31.647v-26.624
				c0-2.288,0.655-4.116,1.968-5.483c1.311-1.367,3.027-2.051,5.149-2.051C261.37,217.137,263.114,217.836,264.482,219.23z"/>
			<path fill="#DC5A56" d="M285.495,273.649c-4.437-2.455-7.87-5.972-10.297-10.549c-2.428-4.576-3.642-9.934-3.642-16.075
				c0-6.083,1.214-11.414,3.642-15.991c2.428-4.576,5.86-8.092,10.297-10.549c4.437-2.455,9.614-3.683,15.53-3.683
				c7.087,0,13.312,1.87,18.67,5.609c0.949,0.67,1.633,1.396,2.051,2.177c0.418,0.782,0.628,1.787,0.628,3.014
				c0,1.731-0.489,3.196-1.465,4.395c-0.977,1.201-2.164,1.8-3.558,1.8c-0.837,0-1.591-0.126-2.26-0.377
				c-0.67-0.251-1.452-0.655-2.344-1.214c-1.955-1.172-3.796-2.009-5.526-2.512c-1.731-0.502-3.516-0.754-5.358-0.754
				c-4.969,0-8.665,1.494-11.093,4.479c-2.428,2.986-3.642,7.522-3.642,13.605c0,6.14,1.214,10.703,3.642,13.689
				c2.428,2.986,6.125,4.479,11.093,4.479c1.674,0,3.292-0.264,4.856-0.795c1.562-0.53,3.571-1.353,6.028-2.47
				c1.172-0.614,2.037-1.033,2.595-1.256c0.558-0.223,1.227-0.335,2.009-0.335c1.394,0,2.581,0.6,3.558,1.8
				c0.976,1.201,1.465,2.666,1.465,4.396c0,1.172-0.209,2.163-0.628,2.972c-0.419,0.809-1.103,1.549-2.051,2.219
				c-5.358,3.74-11.582,5.609-18.67,5.609C295.109,277.332,289.933,276.105,285.495,273.649z"/>
			<path fill="#DC5A56" d="M327.481,274.737c-1.228-1.227-1.842-2.985-1.842-5.275v-44.791c0-2.288,0.614-4.046,1.842-5.274
				c1.227-1.227,2.985-1.842,5.275-1.842h28.967c2.399,0,4.213,0.502,5.442,1.507c1.227,1.005,1.842,2.457,1.842,4.353
				c0,4.019-2.428,6.028-7.284,6.028h-21.098v11.219h19.423c4.856,0,7.284,1.982,7.284,5.944c0,1.898-0.615,3.349-1.842,4.354
				c-1.228,1.005-3.043,1.507-5.442,1.507h-19.423v12.224h21.098c4.856,0,7.284,2.009,7.284,6.028c0,1.898-0.615,3.349-1.842,4.354
				c-1.229,1.005-3.043,1.507-5.442,1.507h-28.967C330.466,276.579,328.708,275.965,327.481,274.737z"/>
			<path fill="#DC5A56" d="M422.587,271.053c0,1.787-0.74,3.28-2.219,4.479c-1.48,1.199-3.196,1.8-5.149,1.8
				c-1.34,0-2.595-0.307-3.768-0.92c-1.172-0.614-2.177-1.534-3.014-2.763l-10.884-15.907c-0.782-1.116-1.605-1.939-2.47-2.47
				c-0.866-0.53-1.884-0.796-3.056-0.796h-5.442v14.986c0,2.344-0.67,4.2-2.009,5.568c-1.34,1.368-3.181,2.051-5.526,2.051
				c-2.344,0-4.201-0.682-5.568-2.051c-1.368-1.367-2.051-3.223-2.051-5.568v-44.791c0-2.288,0.614-4.046,1.842-5.274
				c1.227-1.227,2.985-1.842,5.275-1.842h21.014c7.144,0,12.516,1.549,16.116,4.646c3.6,3.098,5.4,7.577,5.4,13.438
				c0,4.466-1.229,8.247-3.684,11.344c-2.457,3.098-5.917,5.178-10.381,6.238c1.842,0.28,3.445,0.894,4.814,1.842
				c1.367,0.949,2.721,2.373,4.06,4.27l5.191,7.451C422.084,268.291,422.587,269.714,422.587,271.053z M404.461,241.332
				c1.478-1.059,2.219-2.79,2.219-5.19c0-2.455-0.741-4.228-2.219-5.317c-1.48-1.088-3.922-1.632-7.326-1.632h-10.716v13.73h10.716
				C400.539,242.923,402.982,242.393,404.461,241.332z"/>
		</g>
		<g>
			<path fill="#27B4A8" d="M61.489,322.253c0.444,0,0.777,0.167,1,0.5c0.222,0.334,0.333,0.764,0.333,1.292
				c0,0.833-0.202,1.542-0.604,2.125c-0.403,0.583-1.091,1.112-2.062,1.583c-1.64,0.778-3.765,1.396-6.375,1.854
				c-2.611,0.458-5.181,0.688-7.708,0.688c-3.5,0-6.431-0.396-8.792-1.187c-2.361-0.792-4.119-1.882-5.271-3.271
				c-1.153-1.389-1.729-2.959-1.729-4.709c0-2.389,0.771-4.423,2.313-6.104c1.542-1.68,3.813-2.896,6.812-3.646
				c-1.639-0.472-2.896-1.306-3.771-2.5c-0.875-1.194-1.313-2.527-1.313-4c0-2,0.631-3.771,1.896-5.313
				c1.264-1.541,2.965-2.729,5.104-3.562c2.139-0.833,4.486-1.25,7.042-1.25c3.444,0,6.028,0.743,7.75,2.229
				c1.722,1.487,2.583,3.41,2.583,5.771c0,1.639-0.299,2.965-0.896,3.979c-0.598,1.014-1.452,1.521-2.562,1.521
				c-0.778,0-1.389-0.173-1.833-0.521c-0.445-0.347-0.667-0.868-0.667-1.562c0-0.472,0.069-0.986,0.208-1.542
				c0.139-0.916,0.208-1.542,0.208-1.875c0-1-0.375-1.813-1.125-2.438c-0.75-0.625-2-0.937-3.75-0.937c-2.361,0-4.25,0.5-5.667,1.5
				c-1.417,1-2.125,2.348-2.125,4.042c0,1.306,0.534,2.382,1.604,3.229c1.069,0.848,2.813,1.313,5.229,1.396
				c0.611,0.028,1.042,0.166,1.292,0.417c0.25,0.25,0.375,0.667,0.375,1.25c0,1.833-0.834,2.764-2.5,2.792
				c-2.306,0.056-4.216,0.375-5.729,0.958c-1.514,0.583-2.611,1.327-3.292,2.229c-0.681,0.903-1.021,1.869-1.021,2.896
				c0,1.723,0.805,3.021,2.417,3.896c1.611,0.875,4.167,1.313,7.667,1.313c2.305,0,4.743-0.271,7.313-0.812
				c2.569-0.542,4.771-1.202,6.604-1.98C60.864,322.336,61.211,322.253,61.489,322.253z"/>
			<path fill="#27B4A8" d="M76.218,321.295c0.208,0.334,0.312,0.792,0.312,1.375c0,1.112-0.264,1.973-0.792,2.583
				c-1.194,1.472-2.493,2.681-3.896,3.625c-1.403,0.945-2.994,1.417-4.771,1.417c-2.445,0-4.257-1.11-5.438-3.334
				c-1.181-2.222-1.771-5.097-1.771-8.625c0-3.388,0.437-7.25,1.313-11.583c0.875-4.334,2.167-8.055,3.875-11.167
				c1.708-3.111,3.743-4.667,6.104-4.667c1.333,0,2.381,0.618,3.146,1.854c0.764,1.237,1.146,3.008,1.146,5.313
				c0,3.306-0.917,7.14-2.75,11.501c-1.833,4.362-4.32,8.681-7.458,12.958c0.194,1.139,0.514,1.952,0.958,2.438
				c0.444,0.487,1.027,0.729,1.75,0.729c1.139,0,2.139-0.326,3-0.979c0.861-0.652,1.958-1.771,3.292-3.354
				c0.333-0.389,0.708-0.583,1.125-0.583C75.724,320.795,76.009,320.962,76.218,321.295z M68.072,298.503
				c-0.806,2.306-1.514,5.166-2.125,8.583c-0.611,3.417-0.945,6.695-1,9.834c1.972-3.25,3.542-6.506,4.708-9.771
				c1.167-3.264,1.75-6.243,1.75-8.938c0-2.11-0.389-3.167-1.167-3.167C69.599,295.044,68.877,296.197,68.072,298.503z"/>
			<path fill="#27B4A8" d="M95.239,317.837c0.194,0.361,0.292,0.82,0.292,1.375c0,1.333-0.403,2.125-1.208,2.375
				c-1.667,0.583-3.5,0.916-5.5,1c-0.528,2.333-1.57,4.202-3.125,5.604c-1.556,1.403-3.32,2.104-5.292,2.104
				c-1.667,0-3.091-0.402-4.271-1.208c-1.181-0.805-2.077-1.875-2.687-3.208c-0.611-1.334-0.917-2.778-0.917-4.334
				c0-2.11,0.402-3.993,1.208-5.646c0.805-1.652,1.917-2.944,3.333-3.875c1.417-0.93,2.986-1.396,4.708-1.396
				c2.11,0,3.812,0.729,5.104,2.187c1.292,1.459,2.048,3.257,2.271,5.396c1.305-0.084,2.861-0.361,4.667-0.833
				c0.222-0.056,0.417-0.084,0.583-0.084C94.766,317.295,95.044,317.476,95.239,317.837z M83.051,324.795
				c0.652-0.722,1.09-1.764,1.313-3.125c-0.861-0.583-1.521-1.347-1.979-2.292c-0.458-0.944-0.688-1.944-0.688-3
				c0-0.444,0.042-0.889,0.125-1.334h-0.208c-1.111,0-2.035,0.535-2.771,1.604c-0.736,1.069-1.104,2.577-1.104,4.521
				c0,1.528,0.298,2.694,0.896,3.5c0.597,0.806,1.298,1.208,2.104,1.208C81.627,325.878,82.398,325.518,83.051,324.795z"/>
			<path fill="#27B4A8" d="M116.28,323.379c0,1.083-0.244,1.931-0.729,2.541c-0.486,0.611-1.146,0.917-1.979,0.917l-1.542-0.042
				c-0.278-0.027-0.681-0.042-1.208-0.042c0.111,1.583,0.167,3.167,0.167,4.75c0,4.194-0.549,7.847-1.646,10.958
				c-1.098,3.111-2.813,4.667-5.146,4.667c-1.583,0-2.785-0.91-3.604-2.729c-0.82-1.82-1.229-4.035-1.229-6.646
				c0-3.25,0.361-6.458,1.083-9.625c-0.945,1.445-2.181,2.167-3.708,2.167c-1.528,0-2.799-0.639-3.812-1.917
				c-1.015-1.277-1.521-2.93-1.521-4.958c0-2.194,0.521-4.277,1.563-6.25c1.042-1.972,2.43-3.563,4.167-4.771
				c1.736-1.208,3.59-1.812,5.563-1.812c0.666,0,1.18,0.223,1.542,0.667c0.25-0.888,0.625-1.486,1.125-1.792
				c0.5-0.305,1.194-0.458,2.083-0.458c0.944,0,1.576,0.139,1.896,0.417c0.319,0.278,0.465,0.681,0.437,1.208
				c0,0.334-0.174,1.104-0.521,2.313c-0.348,1.208-0.577,2.007-0.688,2.396c-0.445,1.556-0.924,3.278-1.437,5.167
				c-0.515,1.89-0.924,3.611-1.229,5.167c-0.889,4.444-1.334,8.375-1.334,11.792c0,1.277,0.104,2.368,0.312,3.271
				c0.208,0.902,0.479,1.354,0.813,1.354c0.277,0,0.576-0.473,0.896-1.417c0.319-0.945,0.59-2.208,0.812-3.792
				c0.222-1.583,0.334-3.265,0.334-5.041c0-2.111-0.098-3.986-0.292-5.625c-0.028-0.139-0.042-0.361-0.042-0.667
				c0-0.916,0.229-1.68,0.688-2.291c0.458-0.611,1.104-0.917,1.938-0.917c0.11,0,1.167-0.042,3.167-0.125
				c0.833-0.084,1.542-0.125,2.125-0.125C115.96,322.087,116.28,322.517,116.28,323.379z M100.238,324.899
				c0.583-0.792,1-1.743,1.25-2.854l1.791-7.584c-1.223,0.028-2.34,0.458-3.354,1.292c-1.014,0.833-1.82,1.937-2.417,3.313
				c-0.598,1.375-0.896,2.827-0.896,4.354c0,0.861,0.16,1.521,0.479,1.979c0.319,0.458,0.756,0.688,1.313,0.688
				C99.043,326.087,99.655,325.691,100.238,324.899z"/>
			<path fill="#27B4A8" d="M113.968,328.566c-0.792-1.153-1.188-2.59-1.188-4.313c0-2.083,0.139-3.993,0.417-5.729
				c0.277-1.736,0.736-3.576,1.375-5.521c0.277-0.833,0.667-1.43,1.167-1.792c0.5-0.361,1.292-0.542,2.375-0.542
				c0.611,0,1.034,0.098,1.271,0.292c0.236,0.195,0.354,0.486,0.354,0.875c0,0.223-0.153,0.973-0.458,2.25
				c-0.278,1.028-0.5,1.958-0.666,2.792c-0.556,2.917-0.833,4.861-0.833,5.833c0,0.583,0.069,0.994,0.208,1.229
				c0.139,0.236,0.361,0.354,0.667,0.354c0.417,0,0.938-0.417,1.563-1.25c0.625-0.833,1.292-2.097,2-3.792
				c0.708-1.694,1.396-3.778,2.062-6.25c0.222-0.833,0.563-1.43,1.021-1.792c0.458-0.361,1.146-0.542,2.063-0.542
				c0.639,0,1.083,0.077,1.333,0.229c0.25,0.153,0.375,0.438,0.375,0.854c0,0.694-0.348,2.598-1.042,5.708
				c-0.778,3.556-1.167,5.75-1.167,6.584c0,0.528,0.111,0.937,0.333,1.229c0.222,0.291,0.514,0.437,0.875,0.437
				c0.555,0,1.215-0.34,1.979-1.021c0.764-0.681,1.785-1.785,3.063-3.313c0.333-0.389,0.708-0.583,1.125-0.583
				c0.361,0,0.646,0.167,0.854,0.5c0.208,0.334,0.312,0.792,0.312,1.375c0,1.112-0.264,1.973-0.792,2.583
				c-1.195,1.472-2.479,2.681-3.854,3.625c-1.375,0.945-2.938,1.417-4.688,1.417c-1.333,0-2.313-0.513-2.938-1.542
				c-0.625-1.027-0.938-2.472-0.938-4.333c-0.472,1.889-1.181,3.34-2.125,4.354c-0.945,1.014-1.958,1.521-3.042,1.521
				C115.78,330.295,114.759,329.719,113.968,328.566z"/>
			<path fill="#27B4A8" d="M151.468,321.295c0.208,0.334,0.312,0.792,0.312,1.375c0,1.112-0.264,1.973-0.792,2.583
				c-1.028,1.25-2.479,2.403-4.354,3.458c-1.875,1.056-3.882,1.583-6.021,1.583c-2.917,0-5.181-0.792-6.792-2.375
				c-1.611-1.583-2.417-3.75-2.417-6.5c0-1.917,0.402-3.701,1.208-5.354c0.805-1.653,1.923-2.965,3.354-3.938
				c1.43-0.972,3.048-1.458,4.854-1.458c1.611,0,2.902,0.479,3.875,1.438c0.972,0.958,1.458,2.257,1.458,3.896
				c0,1.916-0.688,3.562-2.062,4.938c-1.375,1.375-3.702,2.466-6.979,3.271c0.694,1.278,2.014,1.916,3.959,1.916
				c1.25,0,2.673-0.437,4.271-1.313c1.597-0.875,2.979-2.021,4.146-3.437c0.334-0.389,0.708-0.583,1.125-0.583
				C150.974,320.795,151.26,320.962,151.468,321.295z M137.509,316.545c-0.708,1.195-1.062,2.64-1.062,4.334v0.084
				c1.639-0.389,2.93-0.972,3.875-1.75c0.944-0.777,1.417-1.681,1.417-2.709c0-0.527-0.146-0.951-0.437-1.271
				c-0.292-0.319-0.688-0.479-1.188-0.479C139.086,314.753,138.218,315.351,137.509,316.545z"/>
			<path fill="#27B4A8" d="M149.134,328.629c-0.431-1.111-0.646-2.889-0.646-5.334c0-3.611,0.514-7.042,1.542-10.292
				c0.25-0.805,0.659-1.396,1.229-1.771c0.569-0.375,1.368-0.563,2.396-0.563c0.555,0,0.944,0.07,1.167,0.208
				c0.222,0.139,0.333,0.403,0.333,0.792c0,0.445-0.208,1.445-0.625,3c-0.278,1.112-0.5,2.084-0.667,2.917
				c-0.167,0.833-0.306,1.861-0.417,3.083c0.917-2.389,1.944-4.334,3.083-5.833c1.139-1.5,2.256-2.569,3.354-3.208
				c1.097-0.639,2.104-0.958,3.021-0.958c1.805,0,2.708,0.903,2.708,2.709c0,1.083-0.306,3.042-0.917,5.875
				c-0.528,2.417-0.792,4.014-0.792,4.792c0,1.111,0.402,1.667,1.208,1.667c0.555,0,1.215-0.34,1.979-1.021
				c0.764-0.681,1.784-1.785,3.062-3.313c0.333-0.389,0.708-0.583,1.125-0.583c0.361,0,0.646,0.167,0.854,0.5
				c0.208,0.334,0.312,0.792,0.312,1.375c0,1.112-0.264,1.973-0.792,2.583c-1.195,1.472-2.479,2.681-3.854,3.625
				c-1.375,0.945-2.938,1.417-4.688,1.417c-1.417,0-2.486-0.409-3.208-1.229c-0.723-0.819-1.083-2.006-1.083-3.562
				c0-0.777,0.194-2.167,0.583-4.167c0.361-1.75,0.542-2.958,0.542-3.625c0-0.444-0.153-0.666-0.458-0.666
				c-0.361,0-0.869,0.466-1.521,1.396c-0.653,0.931-1.32,2.161-2,3.688c-0.681,1.528-1.229,3.14-1.646,4.833
				c-0.306,1.306-0.66,2.188-1.063,2.646c-0.403,0.458-1.035,0.688-1.896,0.688C150.307,330.295,149.564,329.74,149.134,328.629z"/>
			<path fill="#27B4A8" d="M188.509,321.295c0.208,0.334,0.312,0.792,0.312,1.375c0,1.112-0.264,1.973-0.792,2.583
				c-1.195,1.472-2.5,2.681-3.917,3.625c-1.417,0.945-3.042,1.417-4.875,1.417c-5.667,0-8.5-3.986-8.5-11.959
				c0-1.222,0.042-2.458,0.125-3.708h-1.625c-0.834,0-1.396-0.153-1.688-0.458c-0.292-0.306-0.438-0.792-0.438-1.459
				c0-1.555,0.625-2.333,1.875-2.333h2.375c0.472-3.055,1.194-5.847,2.167-8.375c0.972-2.528,2.146-4.542,3.521-6.042
				c1.375-1.5,2.854-2.25,4.438-2.25c1.167,0,2.083,0.514,2.75,1.541c0.666,1.029,1,2.32,1,3.875c0,4.306-1.806,8.056-5.417,11.25
				h4.667c0.444,0,0.764,0.097,0.958,0.291c0.194,0.195,0.291,0.556,0.291,1.084c0,1.916-1.569,2.875-4.708,2.875h-5.084
				c-0.056,1.389-0.083,2.472-0.083,3.25c0,2.89,0.34,4.917,1.021,6.083c0.68,1.167,1.757,1.75,3.229,1.75
				c1.194,0,2.25-0.361,3.167-1.083c0.917-0.722,2-1.805,3.25-3.25c0.334-0.389,0.708-0.583,1.125-0.583
				C188.016,320.795,188.301,320.962,188.509,321.295z M178.967,299.274c-0.514,1.042-1,2.486-1.458,4.333
				c-0.458,1.848-0.841,3.896-1.146,6.146c1.639-1.417,2.868-3.007,3.688-4.771c0.819-1.763,1.229-3.368,1.229-4.812
				c0-1.639-0.306-2.458-0.917-2.458C179.946,297.711,179.481,298.232,178.967,299.274z"/>
			<path fill="#27B4A8" d="M197.488,328.42c-1.028-1.25-1.542-2.889-1.542-4.917c0-2.222,0.514-4.326,1.542-6.313
				c1.027-1.986,2.396-3.583,4.104-4.792c1.708-1.208,3.521-1.812,5.438-1.812c0.61,0,1.021,0.118,1.229,0.354
				c0.208,0.236,0.381,0.66,0.521,1.271c0.583-0.111,1.194-0.167,1.833-0.167c1.361,0,2.042,0.487,2.042,1.458
				c0,0.583-0.208,1.973-0.625,4.167c-0.639,3.195-0.958,5.417-0.958,6.667c0,0.417,0.104,0.75,0.312,1
				c0.208,0.25,0.479,0.375,0.813,0.375c0.527,0,1.167-0.34,1.917-1.021s1.764-1.785,3.042-3.313
				c0.334-0.389,0.708-0.583,1.125-0.583c0.361,0,0.646,0.167,0.854,0.5c0.208,0.334,0.312,0.792,0.312,1.375
				c0,1.112-0.264,1.973-0.792,2.583c-1.139,1.417-2.348,2.611-3.625,3.583c-1.278,0.973-2.514,1.458-3.708,1.458
				c-0.917,0-1.757-0.312-2.521-0.937c-0.764-0.625-1.34-1.479-1.729-2.562c-1.445,2.333-3.264,3.5-5.458,3.5
				C199.89,330.295,198.515,329.67,197.488,328.42z M204.863,325.004c0.556-0.722,0.958-1.681,1.208-2.875l1.542-7.667
				c-1.167,0.028-2.243,0.466-3.229,1.313c-0.986,0.847-1.771,1.965-2.354,3.354c-0.583,1.389-0.875,2.862-0.875,4.417
				c0,0.862,0.173,1.5,0.521,1.917c0.347,0.417,0.826,0.625,1.438,0.625C203.724,326.087,204.307,325.726,204.863,325.004z"/>
			<path fill="#27B4A8" d="M217.259,328.566c-0.792-1.153-1.188-2.59-1.188-4.313c0-2.083,0.139-3.993,0.417-5.729
				c0.277-1.736,0.736-3.576,1.375-5.521c0.277-0.833,0.666-1.43,1.167-1.792c0.5-0.361,1.292-0.542,2.375-0.542
				c0.611,0,1.034,0.098,1.271,0.292c0.236,0.195,0.354,0.486,0.354,0.875c0,0.223-0.153,0.973-0.458,2.25
				c-0.278,1.028-0.5,1.958-0.667,2.792c-0.556,2.917-0.833,4.861-0.833,5.833c0,0.583,0.069,0.994,0.208,1.229
				c0.139,0.236,0.361,0.354,0.667,0.354c0.417,0,0.938-0.417,1.563-1.25c0.625-0.833,1.292-2.097,2-3.792
				c0.708-1.694,1.396-3.778,2.062-6.25c0.222-0.833,0.563-1.43,1.021-1.792c0.458-0.361,1.146-0.542,2.063-0.542
				c0.639,0,1.083,0.077,1.333,0.229c0.25,0.153,0.375,0.438,0.375,0.854c0,0.694-0.348,2.598-1.042,5.708
				c-0.778,3.556-1.167,5.75-1.167,6.584c0,0.528,0.111,0.937,0.333,1.229c0.222,0.291,0.514,0.437,0.875,0.437
				c0.555,0,1.215-0.34,1.979-1.021c0.764-0.681,1.785-1.785,3.063-3.313c0.333-0.389,0.708-0.583,1.125-0.583
				c0.361,0,0.646,0.167,0.854,0.5c0.208,0.334,0.312,0.792,0.312,1.375c0,1.112-0.264,1.973-0.792,2.583
				c-1.195,1.472-2.479,2.681-3.854,3.625c-1.375,0.945-2.938,1.417-4.688,1.417c-1.333,0-2.313-0.513-2.938-1.542
				c-0.625-1.027-0.938-2.472-0.938-4.333c-0.472,1.889-1.181,3.34-2.125,4.354c-0.945,1.014-1.958,1.521-3.042,1.521
				C219.071,330.295,218.05,329.719,217.259,328.566z"/>
			<path fill="#27B4A8" d="M254.759,321.295c0.208,0.334,0.312,0.792,0.312,1.375c0,1.112-0.264,1.973-0.792,2.583
				c-1.195,1.472-2.5,2.681-3.917,3.625c-1.417,0.945-3.042,1.417-4.875,1.417c-5.667,0-8.5-3.986-8.5-11.959
				c0-1.222,0.042-2.458,0.125-3.708h-1.625c-0.834,0-1.396-0.153-1.688-0.458c-0.292-0.306-0.438-0.792-0.438-1.459
				c0-1.555,0.625-2.333,1.875-2.333h2.375c0.472-3.055,1.194-5.847,2.167-8.375c0.972-2.528,2.146-4.542,3.521-6.042
				c1.375-1.5,2.854-2.25,4.438-2.25c1.167,0,2.083,0.514,2.75,1.541c0.667,1.029,1,2.32,1,3.875c0,4.306-1.806,8.056-5.417,11.25
				h4.667c0.444,0,0.764,0.097,0.958,0.291c0.194,0.195,0.291,0.556,0.291,1.084c0,1.916-1.569,2.875-4.708,2.875h-5.084
				c-0.056,1.389-0.083,2.472-0.083,3.25c0,2.89,0.34,4.917,1.021,6.083c0.68,1.167,1.757,1.75,3.229,1.75
				c1.194,0,2.25-0.361,3.167-1.083c0.917-0.722,2-1.805,3.25-3.25c0.334-0.389,0.708-0.583,1.125-0.583
				C254.265,320.795,254.55,320.962,254.759,321.295z M245.217,299.274c-0.514,1.042-1,2.486-1.458,4.333
				c-0.458,1.848-0.841,3.896-1.146,6.146c1.639-1.417,2.868-3.007,3.688-4.771c0.819-1.763,1.229-3.368,1.229-4.812
				c0-1.639-0.306-2.458-0.917-2.458C246.196,297.711,245.73,298.232,245.217,299.274z"/>
			<path fill="#27B4A8" d="M275.675,321.295c0.208,0.334,0.312,0.792,0.312,1.375c0,1.112-0.264,1.973-0.792,2.583
				c-1.278,1.472-2.59,2.681-3.938,3.625c-1.348,0.945-2.882,1.417-4.604,1.417c-1.417,0-2.486-0.409-3.208-1.229
				c-0.723-0.819-1.083-2.006-1.083-3.562c0-0.777,0.194-2.167,0.583-4.167c0.361-1.75,0.542-2.958,0.542-3.625
				c0-0.444-0.153-0.666-0.458-0.666c-0.361,0-0.875,0.466-1.542,1.396c-0.667,0.931-1.333,2.161-2,3.688
				c-0.667,1.528-1.208,3.14-1.625,4.833c-0.528,2.223-1.833,3.334-3.917,3.334c-0.833,0-1.382-0.298-1.646-0.896
				c-0.264-0.597-0.396-1.673-0.396-3.229c0-0.888,0.014-1.597,0.042-2.125l0.042-3.334c0-4.277,0.437-8.736,1.313-13.375
				c0.875-4.639,2.167-8.535,3.875-11.688c1.708-3.153,3.757-4.729,6.146-4.729c1.278,0,2.313,0.549,3.104,1.645
				c0.792,1.098,1.188,2.521,1.188,4.271c0,2.806-0.82,5.716-2.458,8.729c-1.639,3.014-4.306,6.535-8,10.563
				c-0.083,1.445-0.125,2.931-0.125,4.459c0.917-2.361,1.937-4.285,3.062-5.771c1.125-1.486,2.236-2.548,3.333-3.187
				c1.097-0.639,2.104-0.958,3.021-0.958c1.805,0,2.708,0.903,2.708,2.709c0,1.083-0.306,3.042-0.917,5.875
				c-0.528,2.417-0.792,4.014-0.792,4.792c0,1.111,0.402,1.667,1.208,1.667c0.556,0,1.215-0.34,1.979-1.021
				c0.764-0.681,1.785-1.785,3.062-3.313c0.334-0.389,0.708-0.583,1.125-0.583C275.182,320.795,275.467,320.962,275.675,321.295z
				 M260.779,297.19c-0.611,1.431-1.202,3.361-1.771,5.791c-0.57,2.431-1.035,5.077-1.396,7.938
				c1.722-2.027,3.146-4.236,4.271-6.625c1.125-2.388,1.688-4.555,1.688-6.5c0-0.888-0.098-1.569-0.292-2.042
				c-0.195-0.472-0.473-0.709-0.833-0.709C261.946,295.044,261.39,295.76,260.779,297.19z"/>
			<path fill="#27B4A8" d="M294.696,317.837c0.194,0.361,0.292,0.82,0.292,1.375c0,1.333-0.403,2.125-1.208,2.375
				c-1.667,0.583-3.5,0.916-5.5,1c-0.528,2.333-1.57,4.202-3.125,5.604c-1.556,1.403-3.32,2.104-5.292,2.104
				c-1.667,0-3.091-0.402-4.271-1.208c-1.181-0.805-2.077-1.875-2.687-3.208c-0.611-1.334-0.917-2.778-0.917-4.334
				c0-2.11,0.402-3.993,1.208-5.646c0.805-1.652,1.917-2.944,3.333-3.875c1.417-0.93,2.986-1.396,4.708-1.396
				c2.11,0,3.812,0.729,5.104,2.187c1.292,1.459,2.048,3.257,2.271,5.396c1.305-0.084,2.861-0.361,4.667-0.833
				c0.222-0.056,0.417-0.084,0.583-0.084C294.224,317.295,294.502,317.476,294.696,317.837z M282.509,324.795
				c0.652-0.722,1.09-1.764,1.313-3.125c-0.861-0.583-1.521-1.347-1.979-2.292c-0.458-0.944-0.688-1.944-0.688-3
				c0-0.444,0.042-0.889,0.125-1.334h-0.208c-1.111,0-2.035,0.535-2.771,1.604c-0.736,1.069-1.104,2.577-1.104,4.521
				c0,1.528,0.298,2.694,0.896,3.5c0.597,0.806,1.298,1.208,2.104,1.208C281.085,325.878,281.856,325.518,282.509,324.795z"/>
			<path fill="#27B4A8" d="M292.133,328.629c-0.431-1.111-0.646-2.889-0.646-5.334c0-3.611,0.514-7.042,1.542-10.292
				c0.25-0.805,0.659-1.396,1.229-1.771c0.569-0.375,1.368-0.563,2.396-0.563c0.555,0,0.944,0.07,1.167,0.208
				c0.222,0.139,0.333,0.403,0.333,0.792c0,0.445-0.208,1.445-0.625,3c-0.278,1.112-0.5,2.084-0.667,2.917
				c-0.167,0.833-0.306,1.861-0.417,3.083c0.917-2.389,1.944-4.334,3.083-5.833c1.139-1.5,2.256-2.569,3.354-3.208
				c1.097-0.639,2.104-0.958,3.021-0.958c1.805,0,2.708,0.903,2.708,2.709c0,0.361-0.125,1.236-0.375,2.625
				c-0.223,1.111-0.333,1.806-0.333,2.083c0,0.973,0.347,1.458,1.042,1.458c0.777,0,1.778-0.611,3-1.833
				c0.361-0.36,0.736-0.541,1.125-0.541c0.361,0,0.646,0.16,0.854,0.479c0.208,0.32,0.313,0.744,0.313,1.271
				c0,1.028-0.278,1.833-0.834,2.417c-0.778,0.806-1.687,1.494-2.729,2.063c-1.042,0.57-2.146,0.854-3.313,0.854
				c-1.472,0-2.59-0.375-3.354-1.125c-0.764-0.75-1.146-1.763-1.146-3.042c0-0.417,0.042-0.833,0.125-1.25
				c0.055-0.556,0.083-0.931,0.083-1.125c0-0.444-0.153-0.666-0.458-0.666c-0.417,0-0.965,0.466-1.646,1.396
				c-0.681,0.931-1.354,2.161-2.021,3.688c-0.667,1.528-1.208,3.14-1.625,4.833c-0.306,1.306-0.66,2.188-1.063,2.646
				c-0.403,0.458-1.035,0.688-1.896,0.688C293.307,330.295,292.564,329.74,292.133,328.629z"/>
			<path fill="#27B4A8" d="M311.55,328.378c-0.82-1.277-1.229-2.972-1.229-5.083c0-1.25,0.16-2.854,0.479-4.812
				c0.319-1.959,0.729-3.785,1.229-5.479c0.25-0.889,0.583-1.5,1-1.833c0.417-0.334,1.083-0.5,2-0.5
				c1.417,0,2.125,0.473,2.125,1.417c0,0.695-0.264,2.306-0.792,4.833c-0.667,3.056-1,5.125-1,6.209c0,0.833,0.11,1.473,0.333,1.917
				c0.222,0.445,0.597,0.667,1.125,0.667c0.5,0,1.125-0.347,1.875-1.042c0.75-0.694,1.75-1.792,3-3.292
				c0.334-0.389,0.709-0.583,1.125-0.583c0.361,0,0.646,0.167,0.854,0.5c0.208,0.334,0.313,0.792,0.313,1.375
				c0,1.112-0.264,1.973-0.792,2.583c-2.75,3.362-5.32,5.042-7.708,5.042C313.682,330.295,312.369,329.657,311.55,328.378z
				 M313.196,307.107c-0.583-0.542-0.875-1.298-0.875-2.271c0-0.972,0.382-1.784,1.146-2.438c0.764-0.652,1.715-0.979,2.854-0.979
				c1.027,0,1.861,0.25,2.5,0.75c0.639,0.5,0.958,1.208,0.958,2.125c0,1.112-0.361,1.994-1.083,2.646
				c-0.723,0.653-1.681,0.979-2.875,0.979C314.654,307.919,313.779,307.649,313.196,307.107z"/>
			<path fill="#27B4A8" d="M341.425,321.295c0.208,0.334,0.312,0.792,0.312,1.375c0,1.028-0.264,1.89-0.792,2.583
				c-1.306,1.694-2.924,3.028-4.854,4c-1.931,0.972-4.104,1.458-6.521,1.458c-1.889,0-3.528-0.285-4.917-0.854
				c-1.389-0.569-2.452-1.347-3.187-2.333c-0.737-0.986-1.104-2.09-1.104-3.313c0-1.833,0.736-3.459,2.208-4.876
				c1.472-1.417,3.583-2.777,6.333-4.083l-6.833,0.167c-0.612,0.028-1.077-0.188-1.396-0.646c-0.32-0.458-0.479-1.006-0.479-1.646
				c0-0.667,0.16-1.256,0.479-1.771c0.319-0.513,0.756-0.771,1.313-0.771c1.277,0,2.986,0.097,5.125,0.291
				c0.444,0.028,1.256,0.084,2.437,0.167c1.18,0.083,2.173,0.125,2.979,0.125c0.277,0,0.805-0.111,1.583-0.334
				c0.139-0.027,0.41-0.097,0.812-0.208c0.402-0.11,0.743-0.167,1.021-0.167c0.444,0,0.813,0.195,1.104,0.583
				c0.292,0.389,0.438,0.986,0.438,1.792c0,0.89-0.208,1.583-0.625,2.083c-0.417,0.5-1.07,0.945-1.959,1.334
				c-2.528,1.083-4.625,2.244-6.292,3.479c-1.667,1.236-2.5,2.466-2.5,3.688c0,0.778,0.361,1.417,1.083,1.916
				c0.722,0.5,1.791,0.75,3.208,0.75c1.556,0,3.132-0.389,4.729-1.167c1.597-0.777,3.035-1.959,4.313-3.541
				c0.334-0.389,0.708-0.583,1.125-0.583C340.932,320.795,341.217,320.962,341.425,321.295z"/>
			<path fill="#27B4A8" d="M338.904,328.42c-1.028-1.25-1.542-2.889-1.542-4.917c0-2.222,0.514-4.326,1.542-6.313
				c1.027-1.986,2.396-3.583,4.104-4.792c1.708-1.208,3.521-1.812,5.438-1.812c0.61,0,1.021,0.118,1.229,0.354
				c0.208,0.236,0.381,0.66,0.521,1.271c0.583-0.111,1.194-0.167,1.833-0.167c1.361,0,2.042,0.487,2.042,1.458
				c0,0.583-0.208,1.973-0.625,4.167c-0.639,3.195-0.958,5.417-0.958,6.667c0,0.417,0.104,0.75,0.312,1
				c0.208,0.25,0.479,0.375,0.813,0.375c0.527,0,1.167-0.34,1.917-1.021c0.75-0.681,1.764-1.785,3.042-3.313
				c0.334-0.389,0.708-0.583,1.125-0.583c0.361,0,0.646,0.167,0.854,0.5c0.208,0.334,0.312,0.792,0.312,1.375
				c0,1.112-0.264,1.973-0.792,2.583c-1.139,1.417-2.348,2.611-3.625,3.583c-1.278,0.973-2.514,1.458-3.708,1.458
				c-0.917,0-1.757-0.312-2.521-0.937c-0.764-0.625-1.34-1.479-1.729-2.562c-1.445,2.333-3.264,3.5-5.458,3.5
				C341.306,330.295,339.932,329.67,338.904,328.42z M346.279,325.004c0.556-0.722,0.958-1.681,1.208-2.875l1.542-7.667
				c-1.167,0.028-2.243,0.466-3.229,1.313c-0.986,0.847-1.771,1.965-2.354,3.354c-0.583,1.389-0.875,2.862-0.875,4.417
				c0,0.862,0.173,1.5,0.521,1.917c0.347,0.417,0.826,0.625,1.438,0.625C345.14,326.087,345.723,325.726,346.279,325.004z"/>
			<path fill="#27B4A8" d="M376.925,321.295c0.208,0.334,0.312,0.792,0.312,1.375c0,1.112-0.264,1.973-0.792,2.583
				c-1.195,1.472-2.5,2.681-3.917,3.625c-1.417,0.945-3.042,1.417-4.875,1.417c-5.667,0-8.5-3.986-8.5-11.959
				c0-1.222,0.042-2.458,0.125-3.708h-1.625c-0.834,0-1.396-0.153-1.688-0.458c-0.292-0.306-0.438-0.792-0.438-1.459
				c0-1.555,0.625-2.333,1.875-2.333h2.375c0.472-3.055,1.194-5.847,2.167-8.375c0.972-2.528,2.146-4.542,3.521-6.042
				c1.375-1.5,2.854-2.25,4.438-2.25c1.167,0,2.083,0.514,2.75,1.541c0.666,1.029,1,2.32,1,3.875c0,4.306-1.806,8.056-5.417,11.25
				h4.667c0.444,0,0.764,0.097,0.958,0.291c0.194,0.195,0.291,0.556,0.291,1.084c0,1.916-1.569,2.875-4.708,2.875h-5.084
				c-0.056,1.389-0.083,2.472-0.083,3.25c0,2.89,0.34,4.917,1.021,6.083c0.68,1.167,1.757,1.75,3.229,1.75
				c1.194,0,2.25-0.361,3.167-1.083c0.917-0.722,2-1.805,3.25-3.25c0.334-0.389,0.708-0.583,1.125-0.583
				C376.432,320.795,376.717,320.962,376.925,321.295z M367.383,299.274c-0.514,1.042-1,2.486-1.458,4.333
				c-0.458,1.848-0.841,3.896-1.146,6.146c1.639-1.417,2.868-3.007,3.688-4.771c0.819-1.763,1.229-3.368,1.229-4.812
				c0-1.639-0.306-2.458-0.917-2.458C368.363,297.711,367.897,298.232,367.383,299.274z"/>
			<path fill="#27B4A8" d="M375.05,328.378c-0.82-1.277-1.229-2.972-1.229-5.083c0-1.25,0.16-2.854,0.479-4.812
				c0.319-1.959,0.729-3.785,1.229-5.479c0.25-0.889,0.583-1.5,1-1.833c0.417-0.334,1.083-0.5,2-0.5
				c1.417,0,2.125,0.473,2.125,1.417c0,0.695-0.264,2.306-0.792,4.833c-0.667,3.056-1,5.125-1,6.209c0,0.833,0.11,1.473,0.333,1.917
				c0.222,0.445,0.597,0.667,1.125,0.667c0.5,0,1.125-0.347,1.875-1.042c0.75-0.694,1.75-1.792,3-3.292
				c0.334-0.389,0.709-0.583,1.125-0.583c0.361,0,0.646,0.167,0.854,0.5c0.208,0.334,0.312,0.792,0.312,1.375
				c0,1.112-0.264,1.973-0.792,2.583c-2.75,3.362-5.32,5.042-7.708,5.042C377.181,330.295,375.869,329.657,375.05,328.378z
				 M376.696,307.107c-0.583-0.542-0.875-1.298-0.875-2.271c0-0.972,0.382-1.784,1.146-2.438c0.764-0.652,1.715-0.979,2.854-0.979
				c1.027,0,1.861,0.25,2.5,0.75c0.639,0.5,0.958,1.208,0.958,2.125c0,1.112-0.361,1.994-1.083,2.646
				c-0.723,0.653-1.681,0.979-2.875,0.979C378.154,307.919,377.279,307.649,376.696,307.107z"/>
			<path fill="#27B4A8" d="M406.195,317.837c0.194,0.361,0.292,0.82,0.292,1.375c0,1.333-0.403,2.125-1.208,2.375
				c-1.667,0.583-3.5,0.916-5.5,1c-0.528,2.333-1.57,4.202-3.125,5.604c-1.556,1.403-3.32,2.104-5.292,2.104
				c-1.667,0-3.091-0.402-4.271-1.208c-1.181-0.805-2.077-1.875-2.687-3.208c-0.611-1.334-0.917-2.778-0.917-4.334
				c0-2.11,0.402-3.993,1.208-5.646c0.805-1.652,1.917-2.944,3.333-3.875c1.417-0.93,2.986-1.396,4.708-1.396
				c2.111,0,3.812,0.729,5.104,2.187c1.292,1.459,2.048,3.257,2.271,5.396c1.305-0.084,2.861-0.361,4.667-0.833
				c0.222-0.056,0.417-0.084,0.583-0.084C405.723,317.295,406.001,317.476,406.195,317.837z M394.008,324.795
				c0.652-0.722,1.09-1.764,1.313-3.125c-0.861-0.583-1.521-1.347-1.979-2.292c-0.458-0.944-0.688-1.944-0.688-3
				c0-0.444,0.042-0.889,0.125-1.334h-0.208c-1.111,0-2.035,0.535-2.771,1.604c-0.736,1.069-1.104,2.577-1.104,4.521
				c0,1.528,0.298,2.694,0.896,3.5c0.597,0.806,1.298,1.208,2.104,1.208C392.584,325.878,393.355,325.518,394.008,324.795z"/>
			<path fill="#27B4A8" d="M403.632,328.629c-0.431-1.111-0.646-2.889-0.646-5.334c0-3.611,0.514-7.042,1.542-10.292
				c0.25-0.805,0.659-1.396,1.229-1.771c0.569-0.375,1.368-0.563,2.396-0.563c0.555,0,0.944,0.07,1.167,0.208
				c0.222,0.139,0.333,0.403,0.333,0.792c0,0.445-0.208,1.445-0.625,3c-0.278,1.112-0.5,2.084-0.667,2.917
				c-0.167,0.833-0.306,1.861-0.417,3.083c0.917-2.389,1.944-4.334,3.083-5.833c1.139-1.5,2.256-2.569,3.354-3.208
				c1.097-0.639,2.104-0.958,3.021-0.958c1.805,0,2.708,0.903,2.708,2.709c0,1.083-0.306,3.042-0.917,5.875
				c-0.528,2.417-0.792,4.014-0.792,4.792c0,1.111,0.402,1.667,1.208,1.667c0.555,0,1.215-0.34,1.979-1.021
				c0.764-0.681,1.784-1.785,3.062-3.313c0.333-0.389,0.708-0.583,1.125-0.583c0.361,0,0.646,0.167,0.854,0.5
				c0.208,0.334,0.312,0.792,0.312,1.375c0,1.112-0.264,1.973-0.792,2.583c-1.195,1.472-2.479,2.681-3.854,3.625
				c-1.375,0.945-2.938,1.417-4.688,1.417c-1.417,0-2.486-0.409-3.208-1.229c-0.723-0.819-1.083-2.006-1.083-3.562
				c0-0.777,0.194-2.167,0.583-4.167c0.361-1.75,0.542-2.958,0.542-3.625c0-0.444-0.153-0.666-0.458-0.666
				c-0.361,0-0.869,0.466-1.521,1.396c-0.653,0.931-1.32,2.161-2,3.688c-0.681,1.528-1.229,3.14-1.646,4.833
				c-0.306,1.306-0.66,2.188-1.063,2.646c-0.403,0.458-1.035,0.688-1.896,0.688C404.806,330.295,404.063,329.74,403.632,328.629z"/>
		</g>
	</g>
</g>
</svg>
